<svg width="70" height="70" viewBox="0 0 70 70" fill="none" xmlns="http://www.w3.org/2000/svg">
<path d="M60.1562 7.65625H9.84375C8.63379 7.65625 7.65625 8.63379 7.65625 9.84375V60.1562C7.65625 61.3662 8.63379 62.3438 9.84375 62.3438H60.1562C61.3662 62.3438 62.3438 61.3662 62.3438 60.1562V9.84375C62.3438 8.63379 61.3662 7.65625 60.1562 7.65625ZM57.4219 39.375H36.0938V30.625H57.4219V39.375ZM57.4219 57.4219H12.5781V12.5781H57.4219V26.25H33.9062C32.6963 26.25 31.7188 27.2275 31.7188 28.4375V41.5625C31.7188 42.7725 32.6963 43.75 33.9062 43.75H57.4219V57.4219ZM39.6484 35C39.6484 35.7252 39.9365 36.4207 40.4493 36.9335C40.9621 37.4463 41.6576 37.7344 42.3828 37.7344C43.108 37.7344 43.8035 37.4463 44.3163 36.9335C44.8291 36.4207 45.1172 35.7252 45.1172 35C45.1172 34.2748 44.8291 33.5793 44.3163 33.0665C43.8035 32.5537 43.108 32.2656 42.3828 32.2656C41.6576 32.2656 40.9621 32.5537 40.4493 33.0665C39.9365 33.5793 39.6484 34.2748 39.6484 35Z" fill="white"/>
</svg>
