<svg width="70" height="70" viewBox="0 0 70 70" fill="none" xmlns="http://www.w3.org/2000/svg">
<path d="M63.6699 34.1045L6.48727 5.43457C6.25485 5.31835 5.98824 5.29101 5.73531 5.35253C5.15426 5.49609 4.79195 6.08398 4.93551 6.67187L10.8281 30.748C10.917 31.1103 11.1836 31.4043 11.539 31.5205L21.6357 34.9863L11.5459 38.4521C11.1904 38.5752 10.9238 38.8623 10.8418 39.2246L4.93551 63.335C4.87399 63.5879 4.90133 63.8545 5.01754 64.0801C5.28414 64.6201 5.94039 64.8389 6.48727 64.5723L63.6699 36.0664C63.8818 35.9639 64.0527 35.7861 64.1621 35.581C64.4287 35.0342 64.2099 34.3779 63.6699 34.1045ZM11.6757 56.4853L15.1142 42.4307L35.2939 35.5059C35.4511 35.4512 35.581 35.3281 35.6357 35.1641C35.7314 34.8769 35.581 34.5693 35.2939 34.4668L15.1142 27.5488L11.6894 13.5488L54.6191 35.0752L11.6757 56.4853Z" fill="white"/>
</svg>
