<svg width="70" height="70" viewBox="0 0 70 70" fill="none" xmlns="http://www.w3.org/2000/svg">
<path d="M8.75 15.3125C8.16984 15.3125 7.61344 15.543 7.2032 15.9532C6.79297 16.3635 6.5625 16.9199 6.5625 17.5C6.5625 18.0802 6.79297 18.6366 7.2032 19.0468C7.61344 19.457 8.16984 19.6875 8.75 19.6875H13.6062L19.3462 42.6563C19.8341 44.6031 21.5775 45.9375 23.5834 45.9375H50.8616C52.8369 45.9375 54.5147 44.625 55.0331 42.7219L60.7031 21.875H56.1225L50.8594 41.5625H23.5812L17.8434 18.5938C17.6064 17.6515 17.06 16.8159 16.2918 16.221C15.5236 15.6261 14.5779 15.3062 13.6062 15.3125H8.75ZM48.125 45.9375C44.5266 45.9375 41.5625 48.9016 41.5625 52.5C41.5625 56.0985 44.5266 59.0625 48.125 59.0625C51.7234 59.0625 54.6875 56.0985 54.6875 52.5C54.6875 48.9016 51.7234 45.9375 48.125 45.9375ZM28.4375 45.9375C24.8391 45.9375 21.875 48.9016 21.875 52.5C21.875 56.0985 24.8391 59.0625 28.4375 59.0625C32.0359 59.0625 35 56.0985 35 52.5C35 48.9016 32.0359 45.9375 28.4375 45.9375ZM35 15.3125V26.25H28.4375L37.1875 35L45.9375 26.25H39.375V15.3125H35ZM28.4375 50.3125C29.6712 50.3125 30.625 51.2663 30.625 52.5C30.625 53.7338 29.6712 54.6875 28.4375 54.6875C27.2037 54.6875 26.25 53.7338 26.25 52.5C26.25 51.2663 27.2037 50.3125 28.4375 50.3125ZM48.125 50.3125C49.3587 50.3125 50.3125 51.2663 50.3125 52.5C50.3125 53.7338 49.3587 54.6875 48.125 54.6875C46.8912 54.6875 45.9375 53.7338 45.9375 52.5C45.9375 51.2663 46.8912 50.3125 48.125 50.3125Z" fill="white"/>
</svg>
